<?xml version="1.0" standalone="no"?><!DOCTYPE svg PUBLIC "-//W3C//DTD SVG 1.1//EN" "http://www.w3.org/Graphics/SVG/1.1/DTD/svg11.dtd"><svg t="1743262629129" class="icon" viewBox="0 0 1024 1024" version="1.1" xmlns="http://www.w3.org/2000/svg" p-id="1486" xmlns:xlink="http://www.w3.org/1999/xlink" width="200" height="200"><path d="M947.2 128a12.672 12.672 0 0 1 9.024 3.776A12.8 12.8 0 0 1 960 140.8v806.4a12.672 12.672 0 0 1-7.872 11.84 12.672 12.672 0 0 1-4.928 0.96H76.8a12.672 12.672 0 0 1-11.84-7.872A12.672 12.672 0 0 1 64 947.2V140.8a12.672 12.672 0 0 1 7.872-11.84A12.672 12.672 0 0 1 76.8 128z m-640 192H140.8a12.8 12.8 0 0 0-12.8 12.8v422.4c0 7.04 5.76 12.8 12.8 12.8h38.4a12.8 12.8 0 0 0 12.8-12.8V576h115.2a12.8 12.8 0 0 0 12.8-12.8V332.8a12.8 12.8 0 0 0-12.8-12.8z m128 0h-38.4a12.8 12.8 0 0 0-12.8 12.8v422.4c0 7.04 5.76 12.8 12.8 12.8h38.4a12.8 12.8 0 0 0 12.8-12.8V576h128v179.2c0 7.04 5.76 12.8 12.8 12.8h38.4a12.8 12.8 0 0 0 12.8-12.8V524.8a12.8 12.8 0 0 0-12.8-12.8H448V332.8a12.8 12.8 0 0 0-12.8-12.8z m448 0h-166.4a12.8 12.8 0 0 0-12.8 12.8v422.4c0 7.04 5.76 12.8 12.8 12.8h38.4a12.8 12.8 0 0 0 12.8-12.8V576h115.2a12.8 12.8 0 0 0 12.8-12.8V332.8a12.8 12.8 0 0 0-12.8-12.8zM256 384v128H192V384h64z m576 0v128h-64V384h64z" p-id="1487" fill="#409eff"></path></svg>